<mxfile host="app.diagrams.net" agent="Mozilla/5.0 (Macintosh; Intel Mac OS X 10_15_7) AppleWebKit/605.1.15 (KHTML, like Gecko) Version/17.6 Safari/605.1.15" version="24.7.17">
  <diagram name="Page-1" id="W5uVfKypUvr8_yU3csDm">
    <mxGraphModel dx="1122" dy="1834" grid="1" gridSize="10" guides="1" tooltips="1" connect="1" arrows="1" fold="1" page="1" pageScale="1" pageWidth="850" pageHeight="1100" math="0" shadow="0">
      <root>
        <mxCell id="0" />
        <mxCell id="1" parent="0" />
        <UserObject label="" link="UseCaseDiagram" id="Hq_A8rt609nTWyU7pHzb-2">
          <mxCell style="rounded=0;whiteSpace=wrap;html=1;direction=south;" vertex="1" parent="1">
            <mxGeometry x="140" y="-160" width="550" height="720" as="geometry" />
          </mxCell>
        </UserObject>
        <mxCell id="Hq_A8rt609nTWyU7pHzb-26" style="edgeStyle=orthogonalEdgeStyle;rounded=0;orthogonalLoop=1;jettySize=auto;html=1;exitX=0.75;exitY=0.1;exitDx=0;exitDy=0;exitPerimeter=0;entryX=0.5;entryY=0;entryDx=0;entryDy=0;" edge="1" parent="1" source="Hq_A8rt609nTWyU7pHzb-3" target="Hq_A8rt609nTWyU7pHzb-11">
          <mxGeometry relative="1" as="geometry">
            <Array as="points">
              <mxPoint x="90" y="-100" />
              <mxPoint x="372" y="-100" />
            </Array>
          </mxGeometry>
        </mxCell>
        <mxCell id="Hq_A8rt609nTWyU7pHzb-3" value="Users" style="shape=umlActor;verticalLabelPosition=bottom;verticalAlign=top;html=1;" vertex="1" parent="1">
          <mxGeometry y="40" width="120" height="266.25" as="geometry" />
        </mxCell>
        <mxCell id="Hq_A8rt609nTWyU7pHzb-29" style="edgeStyle=orthogonalEdgeStyle;rounded=0;orthogonalLoop=1;jettySize=auto;html=1;exitX=0;exitY=1;exitDx=0;exitDy=0;exitPerimeter=0;entryX=1;entryY=0.5;entryDx=0;entryDy=0;" edge="1" parent="1" source="Hq_A8rt609nTWyU7pHzb-7" target="Hq_A8rt609nTWyU7pHzb-27">
          <mxGeometry relative="1" as="geometry" />
        </mxCell>
        <mxCell id="Hq_A8rt609nTWyU7pHzb-7" value="Server" style="shape=umlActor;verticalLabelPosition=bottom;verticalAlign=top;html=1;" vertex="1" parent="1">
          <mxGeometry x="720" y="230" width="110" height="280" as="geometry" />
        </mxCell>
        <mxCell id="Hq_A8rt609nTWyU7pHzb-20" style="edgeStyle=orthogonalEdgeStyle;rounded=0;orthogonalLoop=1;jettySize=auto;html=1;exitX=0.5;exitY=1;exitDx=0;exitDy=0;" edge="1" parent="1" source="Hq_A8rt609nTWyU7pHzb-11" target="Hq_A8rt609nTWyU7pHzb-16">
          <mxGeometry relative="1" as="geometry" />
        </mxCell>
        <mxCell id="Hq_A8rt609nTWyU7pHzb-22" style="edgeStyle=orthogonalEdgeStyle;rounded=0;orthogonalLoop=1;jettySize=auto;html=1;exitX=1;exitY=1;exitDx=0;exitDy=0;entryX=0.5;entryY=0;entryDx=0;entryDy=0;" edge="1" parent="1" source="Hq_A8rt609nTWyU7pHzb-11" target="Hq_A8rt609nTWyU7pHzb-18">
          <mxGeometry relative="1" as="geometry">
            <Array as="points">
              <mxPoint x="404" />
              <mxPoint x="505" />
            </Array>
          </mxGeometry>
        </mxCell>
        <mxCell id="Hq_A8rt609nTWyU7pHzb-11" value="User logs in" style="ellipse;whiteSpace=wrap;html=1;" vertex="1" parent="1">
          <mxGeometry x="327.5" y="-80" width="90" height="40" as="geometry" />
        </mxCell>
        <mxCell id="Hq_A8rt609nTWyU7pHzb-12" value="User creates account" style="ellipse;whiteSpace=wrap;html=1;" vertex="1" parent="1">
          <mxGeometry x="500" y="-85" width="95" height="50" as="geometry" />
        </mxCell>
        <mxCell id="Hq_A8rt609nTWyU7pHzb-14" value="Extends" style="endArrow=block;endSize=16;endFill=0;html=1;rounded=0;entryX=1;entryY=0.5;entryDx=0;entryDy=0;exitX=0;exitY=0.5;exitDx=0;exitDy=0;" edge="1" parent="1" source="Hq_A8rt609nTWyU7pHzb-12" target="Hq_A8rt609nTWyU7pHzb-11">
          <mxGeometry width="160" relative="1" as="geometry">
            <mxPoint x="451.96000000000004" y="130" as="sourcePoint" />
            <mxPoint x="370.00347826086977" as="targetPoint" />
          </mxGeometry>
        </mxCell>
        <mxCell id="Hq_A8rt609nTWyU7pHzb-15" value="Input workout/run information" style="ellipse;whiteSpace=wrap;html=1;" vertex="1" parent="1">
          <mxGeometry x="200" y="53.75" width="100" height="52.5" as="geometry" />
        </mxCell>
        <mxCell id="Hq_A8rt609nTWyU7pHzb-16" value="View profile" style="ellipse;whiteSpace=wrap;html=1;" vertex="1" parent="1">
          <mxGeometry x="320" y="50" width="105" height="55" as="geometry" />
        </mxCell>
        <mxCell id="Hq_A8rt609nTWyU7pHzb-18" value="View Milestones" style="ellipse;whiteSpace=wrap;html=1;" vertex="1" parent="1">
          <mxGeometry x="450" y="50" width="110" height="60" as="geometry" />
        </mxCell>
        <mxCell id="Hq_A8rt609nTWyU7pHzb-19" style="edgeStyle=orthogonalEdgeStyle;rounded=0;orthogonalLoop=1;jettySize=auto;html=1;entryX=0.69;entryY=0.1;entryDx=0;entryDy=0;entryPerimeter=0;" edge="1" parent="1" source="Hq_A8rt609nTWyU7pHzb-11" target="Hq_A8rt609nTWyU7pHzb-15">
          <mxGeometry relative="1" as="geometry" />
        </mxCell>
        <mxCell id="Hq_A8rt609nTWyU7pHzb-23" value="Ultimate Fitness app" style="text;html=1;align=center;verticalAlign=middle;whiteSpace=wrap;rounded=0;" vertex="1" parent="1">
          <mxGeometry x="342.5" y="-150" width="117.5" height="30" as="geometry" />
        </mxCell>
        <mxCell id="Hq_A8rt609nTWyU7pHzb-30" style="edgeStyle=orthogonalEdgeStyle;rounded=0;orthogonalLoop=1;jettySize=auto;html=1;exitX=0;exitY=0.5;exitDx=0;exitDy=0;entryX=1;entryY=0.5;entryDx=0;entryDy=0;" edge="1" parent="1" source="Hq_A8rt609nTWyU7pHzb-27" target="Hq_A8rt609nTWyU7pHzb-28">
          <mxGeometry relative="1" as="geometry" />
        </mxCell>
        <mxCell id="Hq_A8rt609nTWyU7pHzb-27" value="Store Users username and password" style="ellipse;whiteSpace=wrap;html=1;" vertex="1" parent="1">
          <mxGeometry x="520" y="460" width="130" height="60" as="geometry" />
        </mxCell>
        <mxCell id="Hq_A8rt609nTWyU7pHzb-28" value="Store workout/run information" style="ellipse;whiteSpace=wrap;html=1;" vertex="1" parent="1">
          <mxGeometry x="342.5" y="455" width="140" height="70" as="geometry" />
        </mxCell>
      </root>
    </mxGraphModel>
  </diagram>
</mxfile>
